:SAMPLES-PER-SECOND 30
:FULLY-SPECIFIED
:DEGREES
352
root  -8.46392 35.9835 42.5525 -0.00186692 -14.6086 6.4924
RightUpLeg  -29.9804 -13.004 -2.23543
RightLeg  56.9502 15.251 -1.90063
RightFoot  -24.0962 -0.13745 -2.31811
RightToes  -5.82073e-011 -3.18055e-015 -2.98177e-016
Spine  27.7922 -0.393268 19.6406
Spine1  -18.1375 2.59758 -19.6408
HEad  -27.7661 4.49585 -1.67353
LeftShoulder1  -3.88251e-019 9.70628e-020 -3.87848e-018
LeftArm  -2.8524 21.1978 -36.0457
LeftForeArm  -149.07 -73.8709 139.269
LeftHand  -0.98888 -1.31039 17.8354
RightShoulder  0.739369 5.42641 1.18612
RightArm  5.40914 14.9401 56.997
RightForeArm  0.592677 47.7228 -29.9968
RightHand  -5.47661 13.5458 -32.5936
LeftUpLeg  -60.7418 -2.17247 -10.7207
LeftLeg  86.7974 -13.9686 21.4121
LeftFoot  4.88492 0.329093 -2.06271
LeftToes  5.79026e-011 9.70705e-012 -3.73859e-011
353
root  -8.72419 37.6378 43.0981 -1.6793 -11.4475 8.00005
RightUpLeg  -21.8781 -15.2497 -5.01512
RightLeg  47.6558 16.0252 -0.788596
RightFoot  -19.8647 -0.0402325 -1.96325
RightToes  -5.82073e-011 -3.18055e-015 -2.98177e-016
Spine  27.2287 -0.00576475 18.7251
Spine1  -19.0439 2.36162 -23.356
HEad  -24.2355 1.90898 -1.12375
LeftShoulder1  -3.88251e-019 9.70628e-020 -3.87848e-018
LeftArm  -1.14554 6.13108 -28.1956
LeftForeArm  -155.049 -71.6734 145.68
LeftHand  -1.7731 -3.98759 23.0326
RightShoulder  -0.165527 3.68351 -5.2112
RightArm  -1.23489 16.4312 53.9553
RightForeArm  -4.22214 50.9006 -33.4772
RightHand  -5.51073 12.9986 -33.6984
LeftUpLeg  -65.1267 -3.52106 -11.7714
LeftLeg  91.3516 -15.5587 20.7777
LeftFoot  0.278308 0.340533 -2.88917
LeftToes  5.79026e-011 9.70705e-012 -3.73859e-011
354
root  -9.04518 39.7875 43.7411 -2.79243 -7.27431 8.11785
RightUpLeg  -12.063 -15.2215 -6.4179
RightLeg  33.7696 13.1493 -1.88996
RightFoot  -9.43624 -0.0447626 0.530875
RightToes  -5.82073e-011 -3.18055e-015 -2.98177e-016
Spine  25.4006 0.947566 15.7136
Spine1  -19.4139 2.04307 -22.1563
HEad  -19.0401 -1.79368 -0.525087
LeftShoulder1  -3.88251e-019 9.70628e-020 -3.87848e-018
LeftArm  1.75045 -7.27886 -23.2277
LeftForeArm  -151.483 -72.403 143.792
LeftHand  -1.92814 -4.88526 22.5901
RightShoulder  -0.569413 2.49754 -8.58093
RightArm  -6.0749 11.5695 49.3515
RightForeArm  -11.7374 53.5442 -36.6367
RightHand  -5.43055 12.5397 -34.0325
LeftUpLeg  -68.9951 -5.42522 -11.5933
LeftLeg  95.7954 -17.2612 21.2914
LeftFoot  -3.3834 0.23752 -2.84596
LeftToes  5.79026e-011 9.70705e-012 -3.73859e-011
355
root  -9.4068 42.0184 44.4589 -2.97734 -2.53306 7.91357
RightUpLeg  -3.66527 -8.85573 -6.54161
RightLeg  19.402 1.35101 -4.11667
RightFoot  6.17054 -1.17847 6.46515
RightToes  -5.82073e-011 -3.18055e-015 -2.98177e-016
Spine  22.1693 2.38888 11.0295
Spine1  -18.4785 2.30099 -19.2207
HEad  -13.9014 -7.23069 -0.138334
LeftShoulder1  -3.88251e-019 9.70628e-020 -3.87848e-018
LeftArm  5.28413 -17.8772 -23.5414
LeftForeArm  -140.554 -75.4345 133.936
LeftHand  -1.54058 -5.58207 17.1089
RightShoulder  -0.578885 2.4191 -8.69039
RightArm  -6.91333 1.54785 42.4516
RightForeArm  -18.538 55.8754 -39.913
RightHand  -5.46132 12.5176 -34.2532
LeftUpLeg  -72.7259 -8.00037 -10.8912
LeftLeg  100.959 -18.8581 20.3059
LeftFoot  -7.94478 0.0876126 -2.57285
LeftToes  5.79026e-011 9.70705e-012 -3.73859e-011
